<?xml version="1.0" standalone="no"?>
<!DOCTYPE svg PUBLIC "-//W3C//DTD SVG 20010904//EN"
 "http://www.w3.org/TR/2001/REC-SVG-20010904/DTD/svg10.dtd">
<svg version="1.0" xmlns="http://www.w3.org/2000/svg"
 width="512.000000pt" height="512.000000pt" viewBox="0 0 512.000000 512.000000"
 preserveAspectRatio="xMidYMid meet">
<metadata>
Created by potrace 1.11, written by Peter Selinger 2001-2013
</metadata>
<g transform="translate(0.000000,512.000000) scale(0.100000,-0.100000)"
fill="#000000" stroke="none">
<path d="M2317 4405 c-90 -25 -160 -67 -237 -145 -115 -114 -160 -221 -160
-380 0 -157 52 -283 162 -391 220 -217 580 -204 789 30 83 93 139 238 139 361
0 236 -177 465 -405 525 -72 18 -221 18 -288 0z m326 -143 c170 -84 270 -273
238 -449 -16 -94 -55 -168 -120 -234 -98 -98 -239 -144 -367 -120 -336 62
-473 462 -243 706 99 105 177 137 325 133 90 -3 107 -7 167 -36z"/>
<path d="M2462 4168 l3 -63 35 -6 c84 -14 160 -84 180 -168 l12 -51 59 0 c66
0 65 -1 48 80 -14 64 -75 157 -131 196 -46 33 -110 59 -171 69 l-38 6 3 -63z"/>
<path d="M2165 3226 c-28 -12 -65 -40 -84 -61 -69 -79 -66 -45 -69 -726 -3
-598 -2 -617 17 -640 l19 -24 566 -3 566 -2 0 -465 c0 -452 1 -466 20 -485 19
-19 33 -20 430 -20 493 0 455 -11 448 135 -6 109 -33 179 -99 250 -67 73 -175
125 -261 125 l-28 0 0 468 c0 442 -1 470 -18 485 -17 15 -65 17 -485 17 l-467
0 0 177 0 177 93 -91 c110 -107 154 -128 250 -121 35 3 78 13 97 23 49 24 540
515 540 539 0 11 -52 72 -122 143 -93 94 -128 123 -148 123 -19 0 -65 -40
-205 -180 l-180 -180 -180 180 -180 180 -235 0 c-225 0 -237 -1 -285 -24z
m155 -100 c0 -3 -9 -21 -21 -40 -12 -21 -23 -62 -26 -96 l-6 -60 -33 0 -34 0
0 -90 0 -90 35 0 35 0 0 -70 0 -70 -35 0 -35 0 0 -165 0 -165 -35 0 -35 0 0
364 c0 234 4 375 11 393 13 34 47 72 74 83 21 9 105 13 105 6z m267 -609 c-1
-111 -2 -20 -2 203 0 223 1 314 2 203 2 -112 2 -294 0 -406z m591 -489 l-3
-133 -520 0 -520 0 -3 133 -3 132 526 0 526 0 -3 -132z m264 -270 l3 -403 2
403 3 402 60 0 60 0 0 -419 c0 -411 -4 -463 -31 -420 -6 10 -9 11 -9 2 0 -10
-30 -13 -115 -13 l-115 0 0 425 0 425 70 0 70 0 2 -402z m340 -584 c91 -30
157 -112 173 -211 l7 -43 -331 0 -331 0 0 135 0 135 218 0 c171 0 228 -3 264
-16z"/>
<path d="M3535 1720 c0 -201 1 -283 2 -183 2 101 2 265 0 365 -1 101 -2 19 -2
-182z"/>
<path d="M3440 1339 c0 -5 5 -7 10 -4 6 3 10 8 10 11 0 2 -4 4 -10 4 -5 0 -10
-5 -10 -11z"/>
<path d="M1785 2719 c-101 -29 -241 -100 -333 -169 -188 -141 -317 -335 -380
-569 -22 -84 -25 -115 -25 -256 0 -140 3 -172 25 -255 152 -566 729 -895 1284
-734 184 53 316 133 454 273 144 147 233 315 274 513 36 175 33 178 -196 178
-155 0 -170 -2 -188 -20 -11 -11 -20 -29 -20 -39 0 -43 -52 -181 -90 -240
-115 -178 -303 -283 -510 -284 -177 -1 -313 56 -440 183 -189 188 -232 457
-113 698 65 132 200 254 335 303 43 16 62 29 69 46 5 14 9 98 9 189 0 151 -2
166 -20 184 -24 24 -45 24 -135 -1z m30 -127 c-6 -5 -43 -30 -84 -57 -186
-122 -328 -316 -398 -542 -25 -81 -27 -102 -27 -263 0 -197 13 -263 78 -404
81 -176 236 -348 396 -439 95 -54 73 -55 -57 -2 -258 104 -453 327 -535 611
-19 67 -23 102 -22 234 0 140 3 164 28 245 76 249 243 453 460 562 101 51 191
81 161 55z"/>
</g>
</svg>
